<svg xmlns="http://www.w3.org/2000/svg" viewBox="0 0 120 120" role="img" aria-label="CloudPlayer app icon">
  <defs>
    <linearGradient id="bg" x1="0" y1="0" x2="1" y2="1">
      <stop offset="0%" stop-color="#ef8b5f"/>
      <stop offset="100%" stop-color="#c85a45"/>
    </linearGradient>
    <filter id="shadow" x="-20%" y="-20%" width="140%" height="140%">
      <feDropShadow dx="0" dy="6" stdDeviation="6" flood-color="#7f2e21" flood-opacity="0.28"/>
    </filter>
  </defs>
  <rect x="8" y="8" width="104" height="104" rx="26" fill="url(#bg)" filter="url(#shadow)"/>
  <g fill="#fff">
    <rect x="20" y="58" width="5" height="8" rx="2.5"/>
    <rect x="29" y="52" width="5" height="20" rx="2.5"/>
    <rect x="38" y="45" width="5" height="34" rx="2.5"/>
    <rect x="47" y="38" width="5" height="48" rx="2.5"/>
    <rect x="56" y="31" width="5" height="62" rx="2.5"/>
    <rect x="65" y="38" width="5" height="48" rx="2.5"/>
    <rect x="74" y="45" width="5" height="34" rx="2.5"/>
    <rect x="83" y="52" width="5" height="20" rx="2.5"/>
    <rect x="92" y="58" width="5" height="8" rx="2.5"/>
    <rect x="18" y="57" width="84" height="4" rx="2" opacity="0.95"/>
  </g>
</svg>
